<?xml version="1.0" encoding="UTF-8"?>
<svg id="Layer_1" xmlns="http://www.w3.org/2000/svg" version="1.1" viewBox="0 0 508.12 533.27">
  <!-- Generator: Adobe Illustrator 30.0.0, SVG Export Plug-In . SVG Version: 2.1.1 Build 123)  -->
  <defs>
    <style>
      .st0 {
        fill: #fff;
      }

      .st0, .st1 {
        fill-rule: evenodd;
      }

      .st1 {
        fill: #ed1c24;
      }

      .st2 {
        fill: #184882;
      }

      .st3 {
        fill: #db282f;
      }
    </style>
  </defs>
  <g>
    <rect class="st3" x=".59" width="507.53" height="430.83"/>
    <path class="st1" d="M5.81,5.23h497.1v420.38C432.15,236.4,232.58,86.66,5.81,5.23"/>
    <path class="st0" d="M132.02,0h70.4l-56.83,207.3c-35.59,100.01-20.88,146.67,26.58,160.83,62.21,13.57,169.69-59.33,209.08-186.53L431.66,0h72.54l-65.56,244.03c-14.96,50.69-18.31,91.56-4.1,112.23,10.94,17.13,43.69,16.59,73.59-10.87v38.6c-72.95,58.9-180.23,30.48-154.96-95.89-83.03,135.48-263.74,177.92-290.61,56.31-9.32,26.34-16.51,55.35-22.32,86.41H.86C48.49,301.38,91.04,140.15,132.02,0"/>
  </g>
  <rect class="st3" x=".59" y="492.67" width="506.94" height="2.27"/>
  <path class="st3" d="M480.2,472.45h10.37c0,1.14.29,1.98.88,2.54.58.56,1.46.84,2.63.84s1.98-.19,2.58-.57c.6-.38.9-.93.9-1.66,0-1.2-1.32-2.09-3.97-2.66-.24-.05-.41-.09-.55-.13-5.01-1.06-8.29-2.21-9.83-3.46-1.53-1.23-2.29-3.04-2.29-5.43,0-2.88,1.12-5.07,3.37-6.58,2.24-1.51,5.52-2.26,9.83-2.26,4,0,7.1.71,9.3,2.13,2.2,1.42,3.46,3.51,3.79,6.31h-9.6c-.09-.81-.43-1.45-1.05-1.92-.62-.48-1.4-.72-2.33-.72s-1.66.16-2.15.48c-.5.32-.74.79-.74,1.4,0,1.06,1.21,1.85,3.63,2.37.64.13,1.12.23,1.45.3,4.87,1.12,8.04,2.31,9.51,3.56,1.46,1.26,2.2,3.11,2.2,5.54,0,3.09-1.19,5.4-3.59,6.97-2.39,1.56-5.94,2.34-10.63,2.34-4.35,0-7.66-.78-9.94-2.34-2.29-1.57-3.54-3.92-3.77-7.06M472.15,470.95c0,.9.26,1.54.79,1.91.52.37,1.46.56,2.81.56.4,0,.7,0,.9,0,.21,0,.41-.02.61-.04v7.73c-1.31.07-2.51.14-3.59.18-1.08.04-2.09.06-3.03.06-3.39,0-5.76-.57-7.1-1.7-1.34-1.14-2.01-3.13-2.01-5.97v-13.46h-3.77v-6.15h3.77v-8.29h10.62v8.29h5.01v6.15h-5.01v10.74ZM444.77,470.43h10.67c-.23,3.54-1.64,6.33-4.23,8.37-2.6,2.04-6.04,3.06-10.34,3.06-4.75,0-8.52-1.29-11.29-3.88-2.76-2.59-4.15-6.1-4.15-10.54s1.37-7.95,4.1-10.5c2.74-2.56,6.48-3.84,11.23-3.84,4.31,0,7.79,1.01,10.43,3.02,2.63,2.02,4.01,4.73,4.15,8.13h-10.67c-.12-1.27-.5-2.2-1.14-2.82-.64-.61-1.58-.91-2.81-.91-1.54,0-2.68.56-3.4,1.67-.72,1.11-1.09,2.86-1.09,5.24s.35,4.19,1.05,5.31c.7,1.12,1.81,1.68,3.34,1.68,1.23,0,2.2-.34,2.9-1.01.7-.67,1.11-1.67,1.25-2.98ZM421.09,454.05v26.84h-9.76v-3.95c-1.25,1.58-2.65,2.75-4.18,3.52-1.54.77-3.28,1.15-5.23,1.15-1.62,0-3.08-.27-4.37-.82-1.29-.54-2.38-1.35-3.26-2.42-.79-.95-1.35-2.12-1.68-3.49-.33-1.37-.5-3.68-.5-6.93v-13.91h10.67v13.86c0,2.04.27,3.46.81,4.24.54.78,1.48,1.17,2.82,1.17s2.32-.46,2.99-1.35c.67-.91,1-2.28,1-4.11v-13.8h10.67ZM371.86,473.95c1.37,0,2.44-.55,3.22-1.64.78-1.1,1.18-2.61,1.18-4.55,0-2.11-.36-3.67-1.09-4.68-.73-1.02-1.83-1.54-3.31-1.54s-2.58.51-3.29,1.52c-.71,1.01-1.06,2.58-1.06,4.7,0,1.96.38,3.48,1.15,4.57.77,1.09,1.84,1.63,3.2,1.63ZM386.57,480.89h-9.46v-3.29c-1.14,1.43-2.45,2.49-3.91,3.19-1.46.7-3.09,1.05-4.9,1.05-3.44,0-6.22-1.31-8.34-3.91-2.12-2.61-3.18-6.06-3.18-10.36s1.06-7.72,3.19-10.37c2.13-2.66,4.88-3.98,8.24-3.98,1.61,0,3.07.3,4.38.91,1.31.62,2.49,1.53,3.57,2.76v-12.39h10.42v36.36ZM323.39,467.44c0-4.44,1.35-7.95,4.05-10.5,2.7-2.56,6.4-3.84,11.13-3.84s8.44,1.28,11.13,3.84c2.69,2.55,4.03,6.06,4.03,10.5s-1.35,8-4.05,10.57c-2.7,2.57-6.39,3.85-11.11,3.85s-8.42-1.28-11.12-3.85c-2.71-2.57-4.06-6.09-4.06-10.57ZM334.18,467.44c0,2.49.34,4.27,1.03,5.36.68,1.09,1.8,1.63,3.37,1.63s2.7-.55,3.4-1.64c.7-1.1,1.05-2.87,1.05-5.34s-.35-4.22-1.05-5.29c-.7-1.08-1.83-1.62-3.4-1.62s-2.69.53-3.37,1.6c-.68,1.07-1.03,2.84-1.03,5.31ZM301.77,480.89v-26.84h9.85v4.89c.7-1.94,1.72-3.36,3.04-4.26,1.33-.9,3.09-1.35,5.3-1.35h.96v10.64c-.4-.04-.78-.07-1.14-.09-.36-.03-.7-.04-1.03-.04-2.16,0-3.74.49-4.75,1.46-1.01.97-1.52,2.5-1.52,4.57v11.01h-10.71ZM264.95,480.89v-36.36h14.97c3.3,0,5.93.19,7.86.58,1.93.39,3.55,1,4.85,1.86,1.68,1.14,2.93,2.54,3.76,4.22.82,1.68,1.23,3.67,1.23,5.97,0,4.06-1.21,7.18-3.61,9.35-2.4,2.16-5.86,3.24-10.39,3.24h-6.99v11.13h-11.68ZM276.63,460.87h3.75c2.43,0,4.07-.27,4.9-.82.82-.54,1.23-1.5,1.23-2.88s-.4-2.37-1.19-2.91c-.79-.55-2.43-.82-4.94-.82h-3.75v7.42ZM213.05,467.44c0-4.44,1.35-7.95,4.05-10.5,2.7-2.56,6.41-3.84,11.13-3.84s8.44,1.28,11.13,3.84c2.69,2.55,4.04,6.06,4.04,10.5s-1.35,8-4.05,10.57c-2.7,2.57-6.4,3.85-11.11,3.85s-8.42-1.28-11.12-3.85c-2.71-2.57-4.06-6.09-4.06-10.57ZM223.83,467.44c0,2.49.35,4.27,1.03,5.36.68,1.09,1.8,1.63,3.37,1.63s2.7-.55,3.4-1.64c.7-1.1,1.06-2.87,1.06-5.34s-.35-4.22-1.06-5.29c-.7-1.08-1.83-1.62-3.4-1.62s-2.69.53-3.37,1.6c-.69,1.07-1.03,2.84-1.03,5.31ZM191.42,480.89v-26.84h9.85v4.89c.7-1.94,1.72-3.36,3.04-4.26,1.33-.9,3.1-1.35,5.3-1.35h.96v10.64c-.4-.04-.77-.07-1.14-.09-.36-.03-.71-.04-1.04-.04-2.16,0-3.74.49-4.75,1.46-1.01.97-1.52,2.5-1.52,4.57v11.01h-10.71ZM176.31,470.43h10.67c-.23,3.54-1.64,6.33-4.23,8.37-2.6,2.04-6.04,3.06-10.34,3.06-4.75,0-8.52-1.29-11.28-3.88-2.77-2.59-4.15-6.1-4.15-10.54s1.36-7.95,4.1-10.5c2.74-2.56,6.48-3.84,11.23-3.84,4.31,0,7.79,1.01,10.42,3.02,2.63,2.02,4.01,4.73,4.15,8.13h-10.67c-.12-1.27-.5-2.2-1.14-2.82-.64-.61-1.57-.91-2.81-.91-1.54,0-2.68.56-3.41,1.67-.72,1.11-1.09,2.86-1.09,5.24s.35,4.19,1.05,5.31c.7,1.12,1.81,1.68,3.35,1.68,1.23,0,2.2-.34,2.9-1.01.7-.67,1.11-1.67,1.25-2.98ZM141.57,480.89v-26.84h10.76v26.84h-10.76ZM141.57,451.31v-7.68h10.76v7.68h-10.76ZM104.56,480.89h-10.57v-36.36h14.23l5.03,18.14c.07.25.2.81.39,1.7.19.88.48,2.09.84,3.64.23-1.22.44-2.28.64-3.2.19-.91.37-1.59.51-2.06l5.16-18.22h14.2v36.36h-10.57l.1-17.9c0-1.09,0-2.14,0-3.17,0-1.03.02-2.1.04-3.2-.39,1.88-.88,3.93-1.43,6.15l-.07.32-4.49,17.8h-8.15l-4.54-17.4c-.21-.79-.43-1.69-.64-2.71-.21-1.03-.5-2.41-.84-4.15.05,1.57.09,2.91.12,4.03.03,1.12.03,2.01.03,2.69v17.55ZM39.6,469.56h11.36c.31,1.32.87,2.27,1.7,2.84.83.58,2.05.87,3.67.87,1.36,0,2.44-.24,3.22-.71.78-.46,1.17-1.11,1.17-1.94,0-1.31-1.64-2.39-4.91-3.21-.66-.16-1.16-.29-1.51-.37-2.68-.69-4.82-1.31-6.41-1.89-1.59-.56-2.75-1.1-3.47-1.59-1.4-1-2.44-2.21-3.14-3.61-.7-1.4-1.05-2.99-1.05-4.79,0-3.61,1.36-6.44,4.07-8.5,2.72-2.06,6.45-3.08,11.21-3.08s8.36.99,11.04,2.95c2.68,1.97,4.2,4.79,4.54,8.46h-11.08c-.18-1.07-.66-1.87-1.42-2.39-.77-.53-1.86-.79-3.28-.79-1.25,0-2.18.2-2.79.61-.61.41-.91,1.04-.91,1.88,0,1.2,1.59,2.21,4.79,3.01.29.08.5.14.64.18.46.11,1.16.29,2.1.51,4.23,1.07,6.99,2.04,8.29,2.91,1.62,1.07,2.79,2.29,3.53,3.66.74,1.37,1.11,2.98,1.11,4.84,0,4.01-1.4,7.09-4.21,9.25-2.81,2.16-6.83,3.24-12.06,3.24-4.83,0-8.65-1.08-11.47-3.24-2.82-2.16-4.41-5.19-4.75-9.11ZM0,444.53h11.68v22.42c0,2.07.43,3.55,1.3,4.42.86.89,2.31,1.32,4.33,1.32s3.39-.43,4.23-1.3c.85-.86,1.27-2.35,1.27-4.45v-22.42h11.68v23.33c0,4.56-1.46,8.04-4.41,10.44-2.94,2.4-7.2,3.61-12.78,3.61s-9.9-1.21-12.87-3.62c-2.96-2.41-4.44-5.89-4.44-10.43v-23.33Z"/>
  <path class="st2" d="M495.77,511.28c-.98,0-1.74.23-2.31.69-.57.46-.84,1.07-.84,1.84s.34,1.37,1.03,1.82c.69.45,2.28.98,4.77,1.6,2.49.61,4.42,1.53,5.8,2.75,1.37,1.23,2.06,3.02,2.06,5.37s-.89,4.26-2.65,5.73c-1.76,1.46-4.09,2.19-6.96,2.19-4.15,0-7.89-1.54-11.22-4.62l3.49-4.28c2.83,2.48,5.44,3.72,7.84,3.72,1.08,0,1.92-.23,2.53-.7.61-.46.92-1.09.92-1.88s-.33-1.41-.97-1.87c-.65-.46-1.94-.93-3.87-1.41-3.05-.72-5.29-1.67-6.7-2.83-1.41-1.16-2.12-2.99-2.12-5.48s.89-4.41,2.68-5.76c1.79-1.35,4.03-2.03,6.7-2.03,1.75,0,3.5.3,5.25.9,1.75.6,3.28,1.45,4.58,2.55l-2.96,4.28c-2.28-1.72-4.63-2.59-7.06-2.59M474.01,506.73h5.85v26.23h-5.85l-12.5-16.44v16.44h-5.85v-26.23h5.48l12.87,16.89v-16.89ZM445.71,529.35c-2.65,2.59-5.92,3.88-9.79,3.88s-7.14-1.29-9.8-3.88c-2.65-2.59-3.98-5.81-3.98-9.67s1.33-7.07,3.98-9.66c2.65-2.59,5.92-3.89,9.8-3.89s7.14,1.3,9.79,3.89c2.65,2.59,3.98,5.81,3.98,9.66s-1.33,7.08-3.98,9.67ZM443.72,519.7c0-2.34-.75-4.33-2.25-5.99-1.5-1.65-3.35-2.47-5.54-2.47s-4.03.82-5.54,2.47c-1.5,1.65-2.25,3.65-2.25,5.99s.75,4.33,2.25,5.97c1.5,1.64,3.35,2.46,5.54,2.46s4.04-.82,5.54-2.46c1.5-1.64,2.25-3.63,2.25-5.97ZM410.32,506.73h5.85v26.23h-5.85v-26.23ZM397.59,511.8v21.17h-5.85v-21.17h-7.43v-5.07h20.72v5.07h-7.43ZM364.23,526.19c.98,1.21,2.29,1.82,3.94,1.82s2.96-.61,3.92-1.82c.97-1.22,1.45-2.87,1.45-4.97v-14.49h5.85v14.67c0,3.81-1.05,6.73-3.15,8.77-2.1,2.04-4.79,3.06-8.07,3.06s-5.97-1.03-8.09-3.08c-2.11-2.05-3.17-4.97-3.17-8.75v-14.67h5.85v14.49c0,2.1.49,3.76,1.46,4.97ZM334.96,532.97v-26.23h5.85v21.01h11.18v5.22h-17.04ZM325.01,529.35c-2.65,2.59-5.91,3.88-9.8,3.88s-7.14-1.29-9.79-3.88c-2.65-2.59-3.98-5.81-3.98-9.67s1.32-7.07,3.98-9.66c2.65-2.59,5.92-3.89,9.79-3.89s7.15,1.3,9.8,3.89c2.65,2.59,3.98,5.81,3.98,9.66s-1.33,7.08-3.98,9.67ZM323.02,519.7c0-2.34-.75-4.33-2.25-5.99-1.5-1.65-3.34-2.47-5.53-2.47s-4.03.82-5.54,2.47c-1.5,1.65-2.25,3.65-2.25,5.99s.75,4.33,2.25,5.97c1.5,1.64,3.35,2.46,5.54,2.46s4.03-.82,5.53-2.46c1.5-1.64,2.25-3.63,2.25-5.97ZM286.43,511.28c-.98,0-1.75.23-2.31.69-.56.46-.85,1.07-.85,1.84s.34,1.37,1.03,1.82c.69.45,2.28.98,4.77,1.6,2.49.61,4.42,1.53,5.8,2.75,1.37,1.23,2.06,3.02,2.06,5.37s-.88,4.26-2.64,5.73c-1.77,1.46-4.09,2.19-6.96,2.19-4.15,0-7.89-1.54-11.22-4.62l3.49-4.28c2.83,2.48,5.44,3.72,7.84,3.72,1.08,0,1.92-.23,2.53-.7.61-.46.92-1.09.92-1.88s-.33-1.41-.98-1.87c-.65-.46-1.94-.93-3.87-1.41-3.05-.72-5.29-1.67-6.7-2.83-1.41-1.16-2.12-2.99-2.12-5.48s.9-4.41,2.68-5.76c1.79-1.35,4.02-2.03,6.7-2.03,1.75,0,3.5.3,5.25.9,1.75.6,3.28,1.45,4.58,2.55l-2.96,4.28c-2.28-1.72-4.63-2.59-7.06-2.59ZM246.27,527.79c2.68,0,4.74-.67,6.17-2.03,1.44-1.35,2.16-3.32,2.16-5.89s-.72-4.56-2.16-5.95c-1.44-1.38-3.65-2.08-6.63-2.08h-3.26v15.95h3.72ZM245.97,506.73c4.68,0,8.27,1.14,10.77,3.43,2.5,2.29,3.75,5.48,3.75,9.55s-1.22,7.31-3.66,9.69c-2.44,2.37-6.16,3.56-11.16,3.56h-8.97v-26.23h9.27ZM230.06,506.73v5.22h-13.06v5.4h11.74v4.99h-11.74v5.44h13.47v5.18h-19.33v-26.23h18.91ZM192.98,519.53c2,0,3.37-.33,4.09-.98.73-.65,1.09-1.69,1.09-3.1s-.38-2.38-1.13-2.91c-.75-.52-2.06-.79-3.94-.79h-4.39v7.77h4.28ZM204.12,515.44c0,4.21-1.66,6.92-4.99,8.14l6.64,9.38h-7.2l-5.82-8.37h-4.05v8.37h-5.85v-26.23h9.95c4.08,0,6.99.69,8.73,2.06,1.74,1.37,2.61,3.59,2.61,6.64ZM176.2,506.73v5.22h-13.06v5.4h11.74v4.99h-11.74v5.44h13.47v5.18h-19.33v-26.23h18.91ZM150.64,506.73v5.22h-13.06v5.4h11.74v4.99h-11.74v5.44h13.47v5.18h-19.33v-26.23h18.91ZM118.41,506.73h5.85v26.23h-5.85l-12.5-16.44v16.44h-5.85v-26.23h5.48l12.87,16.89v-16.89ZM86.73,506.73h5.85v26.23h-5.85v-26.23ZM74.61,519.61h5.89v9.31c-2.6,2.9-6.2,4.36-10.81,4.36-3.85,0-7.09-1.28-9.7-3.83-2.61-2.55-3.92-5.77-3.92-9.66s1.33-7.14,4-9.74c2.66-2.6,5.88-3.9,9.64-3.9s7.04,1.24,9.81,3.72l-3.04,4.39c-1.17-1.03-2.26-1.74-3.24-2.12-.99-.39-2.06-.58-3.21-.58-2.23,0-4.1.76-5.63,2.27-1.53,1.52-2.29,3.51-2.29,5.99s.73,4.46,2.19,5.95c1.46,1.49,3.21,2.23,5.24,2.23s3.72-.39,5.07-1.16v-7.21ZM44.25,506.73h5.85v26.23h-5.85l-12.5-16.44v16.44h-5.85v-26.23h5.48l12.87,16.89v-16.89ZM19.26,506.73v5.22H6.2v5.4h11.74v4.99H6.2v5.44h13.47v5.18H.34v-26.23h18.91Z"/>
</svg>