<?xml version="1.0" encoding="UTF-8"?>
<svg id="Layer_1" xmlns="http://www.w3.org/2000/svg" version="1.1" viewBox="0 0 507.1 73.08">
  <!-- Generator: Adobe Illustrator 30.1.0, SVG Export Plug-In . SVG Version: 2.1.1 Build 136)  -->
  <g>
    <path d="M0,0v73.08h.05C8.42,51.12,15.89,23.77,23.09,0H0Z" style="fill: #fff; fill-rule: evenodd;"/>
    <path d="M30.14,62.45c10.93,2.3,29.81-10.06,36.73-31.64L75.74,0h-40.28l-9.98,35.16c-6.25,16.97-3.67,24.88,4.67,27.28Z" style="fill: #fff; fill-rule: evenodd;"/>
    <path d="M61.94,48.87c-14.59,22.98-46.34,30.18-51.06,9.55-1.64,4.47-2.9,9.39-3.92,14.66h82.21v-7.95c-12.82,9.99-31.67,5.17-27.23-16.27Z" style="fill: #fff; fill-rule: evenodd;"/>
    <path d="M88.48,0l-11.52,41.4c-2.63,8.6-3.22,15.53-.72,19.04,1.92,2.91,7.68,2.81,12.93-1.84V0h-.69Z" style="fill: #fff; fill-rule: evenodd;"/>
  </g>
  <rect x="103.98" y="39.8" width="402.65" height="1.75" style="fill: #fff;"/>
  <path d="M484.93,24.26h8.23c0,.88.23,1.52.7,1.95.46.43,1.16.65,2.09.65s1.57-.14,2.05-.43c.48-.29.72-.72.72-1.28,0-.92-1.05-1.61-3.15-2.05-.19-.04-.33-.07-.44-.1-3.98-.82-6.59-1.7-7.81-2.66-1.21-.95-1.82-2.34-1.82-4.17,0-2.22.89-3.9,2.68-5.06,1.78-1.16,4.39-1.74,7.81-1.74,3.18,0,5.64.54,7.38,1.63,1.75,1.09,2.75,2.7,3.01,4.85h-7.63c-.07-.62-.34-1.11-.83-1.48-.49-.37-1.11-.55-1.85-.55s-1.32.12-1.71.37c-.39.25-.59.6-.59,1.08,0,.82.96,1.43,2.88,1.82.51.1.89.17,1.15.23,3.87.86,6.39,1.77,7.55,2.74,1.16.97,1.75,2.39,1.75,4.26,0,2.37-.95,4.15-2.85,5.36-1.9,1.2-4.72,1.8-8.44,1.8-3.45,0-6.09-.6-7.89-1.8-1.82-1.2-2.81-3.01-2.99-5.43M478.53,23.1c0,.69.21,1.19.63,1.47.42.29,1.16.43,2.23.43.32,0,.56,0,.72,0,.17,0,.33-.02.48-.03v5.94c-1.04.06-2,.11-2.85.14-.86.03-1.66.05-2.4.05-2.69,0-4.57-.43-5.64-1.31-1.06-.87-1.6-2.4-1.6-4.59v-10.35h-3v-4.73h3V3.74h8.43v6.38h3.98v4.73h-3.98v8.26ZM456.78,22.7h8.48c-.18,2.72-1.31,4.87-3.36,6.43-2.06,1.57-4.8,2.35-8.21,2.35-3.78,0-6.77-.99-8.96-2.98-2.2-1.99-3.29-4.69-3.29-8.11s1.09-6.11,3.25-8.07c2.18-1.97,5.15-2.95,8.92-2.95,3.43,0,6.18.78,8.28,2.33,2.09,1.55,3.19,3.64,3.29,6.25h-8.48c-.09-.97-.39-1.69-.9-2.17-.51-.47-1.25-.7-2.24-.7-1.22,0-2.13.43-2.7,1.28-.57.85-.86,2.2-.86,4.03s.28,3.22.84,4.08c.55.86,1.44,1.29,2.66,1.29.98,0,1.75-.26,2.3-.78.56-.52.89-1.28.99-2.29ZM437.97,10.11v20.64h-7.75v-3.04c-.99,1.22-2.1,2.12-3.32,2.71-1.22.59-2.6.88-4.15.88-1.29,0-2.45-.21-3.47-.63-1.02-.41-1.89-1.04-2.59-1.86-.63-.73-1.07-1.63-1.33-2.68-.26-1.06-.39-2.83-.39-5.33v-10.69h8.47v10.65c0,1.57.21,2.66.65,3.26.43.6,1.17.9,2.24.9s1.85-.35,2.38-1.04c.53-.7.8-1.75.8-3.16v-10.61h8.47ZM398.87,25.41c1.09,0,1.94-.42,2.56-1.26.62-.84.94-2.01.94-3.5,0-1.62-.29-2.82-.86-3.6-.58-.78-1.45-1.18-2.63-1.18s-2.05.39-2.61,1.17c-.56.78-.84,1.98-.84,3.62,0,1.5.3,2.68.91,3.51.61.83,1.46,1.25,2.54,1.25ZM410.56,30.75h-7.51v-2.53c-.91,1.1-1.95,1.92-3.11,2.46-1.16.54-2.46.81-3.9.81-2.73,0-4.94-1-6.63-3.01-1.69-2.01-2.53-4.66-2.53-7.96s.84-5.94,2.54-7.97c1.69-2.04,3.87-3.06,6.55-3.06,1.28,0,2.44.23,3.48.7,1.04.47,1.98,1.18,2.83,2.13V2.79h8.27v27.96ZM360.37,20.4c0-3.42,1.07-6.11,3.22-8.07,2.14-1.97,5.09-2.95,8.84-2.95s6.7.99,8.84,2.95c2.14,1.96,3.2,4.66,3.2,8.07s-1.07,6.15-3.22,8.12c-2.14,1.98-5.08,2.96-8.82,2.96s-6.69-.98-8.84-2.96c-2.15-1.98-3.23-4.68-3.23-8.12ZM368.94,20.4c0,1.91.27,3.28.82,4.12.54.84,1.43,1.25,2.68,1.25s2.14-.42,2.7-1.26c.55-.84.83-2.21.83-4.11s-.28-3.24-.83-4.07c-.56-.83-1.45-1.24-2.7-1.24s-2.13.41-2.68,1.23c-.54.82-.82,2.18-.82,4.08ZM343.19,30.75V10.11h7.83v3.76c.55-1.49,1.36-2.58,2.42-3.27,1.06-.69,2.46-1.04,4.21-1.04h.76v8.18c-.32-.03-.62-.05-.91-.07-.29-.02-.56-.03-.82-.03-1.71,0-2.97.38-3.78,1.12-.8.75-1.21,1.92-1.21,3.51v8.47h-8.51ZM313.95,30.75V2.79h11.89c2.62,0,4.71.15,6.25.45,1.53.3,2.82.77,3.85,1.43,1.33.87,2.33,1.96,2.99,3.25.65,1.29.98,2.82.98,4.59,0,3.12-.96,5.52-2.87,7.19-1.91,1.66-4.66,2.49-8.25,2.49h-5.55v8.56h-9.28ZM323.23,15.35h2.98c1.93,0,3.23-.21,3.89-.63.65-.41.98-1.15.98-2.22s-.31-1.82-.94-2.24c-.62-.42-1.93-.63-3.92-.63h-2.98v5.71ZM272.73,20.4c0-3.42,1.07-6.11,3.22-8.07,2.14-1.97,5.09-2.95,8.84-2.95s6.7.99,8.84,2.95c2.13,1.96,3.21,4.66,3.21,8.07s-1.07,6.15-3.22,8.12c-2.14,1.98-5.08,2.96-8.82,2.96s-6.69-.98-8.83-2.96c-2.15-1.98-3.23-4.68-3.23-8.12ZM281.3,20.4c0,1.91.27,3.28.82,4.12.54.84,1.43,1.25,2.68,1.25s2.14-.42,2.7-1.26c.56-.84.84-2.21.84-4.11s-.28-3.24-.84-4.07c-.55-.83-1.45-1.24-2.7-1.24s-2.14.41-2.68,1.23c-.54.82-.82,2.18-.82,4.08ZM255.55,30.75V10.11h7.83v3.76c.56-1.49,1.37-2.58,2.42-3.27,1.06-.69,2.46-1.04,4.21-1.04h.76v8.18c-.31-.03-.61-.05-.9-.07-.29-.02-.56-.03-.82-.03-1.71,0-2.97.38-3.78,1.12-.8.75-1.2,1.92-1.2,3.51v8.47h-8.51ZM243.55,22.7h8.47c-.18,2.72-1.31,4.87-3.36,6.43-2.06,1.57-4.8,2.35-8.21,2.35-3.78,0-6.77-.99-8.96-2.98-2.2-1.99-3.29-4.69-3.29-8.11s1.08-6.11,3.25-8.07c2.18-1.97,5.15-2.95,8.92-2.95,3.43,0,6.19.78,8.28,2.33,2.09,1.55,3.19,3.64,3.29,6.25h-8.47c-.09-.97-.4-1.69-.91-2.17-.51-.47-1.25-.7-2.23-.7-1.22,0-2.13.43-2.71,1.28-.58.85-.86,2.2-.86,4.03s.28,3.22.84,4.08c.56.86,1.44,1.29,2.66,1.29.98,0,1.75-.26,2.3-.78.56-.52.88-1.28.99-2.29ZM215.96,30.75V10.11h8.55v20.64h-8.55ZM215.96,8.01V2.1h8.55v5.9h-8.55ZM186.56,30.75h-8.39V2.79h11.3l4,13.95c.05.19.16.62.31,1.3.15.67.38,1.61.67,2.8.18-.94.35-1.76.51-2.46.15-.7.29-1.22.41-1.58l4.1-14.01h11.28v27.96h-8.4l.08-13.76c0-.84,0-1.65,0-2.44,0-.79.02-1.61.03-2.46-.31,1.44-.7,3.02-1.14,4.73l-.06.25-3.57,13.69h-6.47l-3.61-13.38c-.17-.61-.34-1.3-.51-2.09-.17-.79-.4-1.85-.67-3.19.04,1.21.07,2.24.09,3.1.02.86.03,1.55.03,2.07v13.5ZM134.96,22.03h9.02c.25,1.01.69,1.74,1.35,2.18.66.45,1.63.67,2.92.67,1.08,0,1.94-.18,2.56-.54.62-.36.93-.85.93-1.49,0-1.01-1.3-1.83-3.9-2.47-.52-.12-.92-.22-1.2-.29-2.13-.53-3.83-1.01-5.09-1.45-1.26-.43-2.18-.84-2.76-1.22-1.11-.77-1.94-1.7-2.5-2.77-.56-1.08-.84-2.3-.84-3.68,0-2.77,1.08-4.95,3.23-6.53,2.16-1.58,5.13-2.37,8.9-2.37s6.64.76,8.77,2.27c2.13,1.52,3.33,3.68,3.61,6.5h-8.8c-.14-.82-.52-1.44-1.12-1.84-.61-.41-1.48-.61-2.6-.61-.99,0-1.73.16-2.22.47-.48.32-.72.8-.72,1.45,0,.92,1.27,1.7,3.8,2.31.23.06.39.11.51.14.37.08.92.22,1.67.39,3.36.82,5.56,1.57,6.59,2.24,1.28.82,2.22,1.76,2.81,2.81.59,1.05.88,2.29.88,3.72,0,3.08-1.11,5.45-3.34,7.12-2.23,1.66-5.42,2.49-9.58,2.49-3.84,0-6.87-.83-9.11-2.49-2.24-1.66-3.5-3.99-3.78-7ZM103.51,2.79h9.28v17.24c0,1.59.34,2.73,1.03,3.4.68.68,1.83,1.02,3.44,1.02s2.69-.33,3.36-1c.68-.66,1.01-1.81,1.01-3.42V2.79h9.28v17.93c0,3.51-1.16,6.18-3.5,8.03-2.34,1.85-5.72,2.77-10.15,2.77s-7.86-.93-10.22-2.78c-2.35-1.85-3.53-4.53-3.53-8.02V2.79Z" style="fill: #fff;"/>
  <path d="M497.29,54.11c-.78,0-1.39.18-1.83.53-.45.36-.67.83-.67,1.41s.27,1.05.82,1.4c.55.35,1.81.76,3.79,1.23,1.98.47,3.51,1.18,4.61,2.12,1.09.94,1.64,2.32,1.64,4.13s-.7,3.28-2.1,4.4c-1.4,1.12-3.25,1.69-5.53,1.69-3.3,0-6.27-1.19-8.91-3.55l2.77-3.29c2.25,1.91,4.32,2.86,6.23,2.86.86,0,1.53-.18,2.01-.53.48-.35.73-.84.73-1.44s-.26-1.09-.77-1.44c-.52-.36-1.54-.72-3.07-1.09-2.43-.55-4.2-1.28-5.32-2.18-1.12-.9-1.68-2.3-1.68-4.21s.71-3.39,2.13-4.43c1.42-1.04,3.2-1.56,5.32-1.56,1.39,0,2.78.23,4.17.69,1.39.46,2.6,1.12,3.64,1.96l-2.35,3.29c-1.81-1.32-3.68-1.99-5.6-1.99M480,50.62h4.65v20.17h-4.65l-9.93-12.64v12.64h-4.65v-20.17h4.35l10.22,12.98v-12.98ZM457.52,68c-2.1,1.99-4.7,2.99-7.78,2.99s-5.67-.99-7.78-2.99c-2.1-1.99-3.16-4.47-3.16-7.43s1.05-5.44,3.16-7.43c2.11-1.99,4.7-2.99,7.78-2.99s5.67,1,7.78,2.99c2.1,1.99,3.16,4.46,3.16,7.43s-1.05,5.44-3.16,7.43ZM455.94,60.59c0-1.8-.59-3.33-1.79-4.6-1.19-1.27-2.66-1.9-4.4-1.9s-3.2.63-4.4,1.9c-1.19,1.27-1.79,2.8-1.79,4.6s.6,3.33,1.79,4.59c1.19,1.26,2.66,1.89,4.4,1.89s3.21-.63,4.4-1.89c1.19-1.26,1.79-2.79,1.79-4.59ZM429.42,50.62h4.65v20.17h-4.65v-20.17ZM419.31,54.51v16.27h-4.65v-16.27h-5.91v-3.89h16.46v3.89h-5.91ZM392.81,65.58c.77.93,1.82,1.4,3.13,1.4s2.35-.47,3.11-1.4c.77-.93,1.15-2.21,1.15-3.82v-11.14h4.65v11.28c0,2.93-.83,5.17-2.5,6.74-1.67,1.57-3.81,2.35-6.41,2.35s-4.75-.79-6.43-2.36c-1.68-1.58-2.52-3.82-2.52-6.73v-11.28h4.65v11.14c0,1.61.39,2.89,1.16,3.82ZM369.56,70.79v-20.17h4.65v16.16h8.88v4.01h-13.53ZM361.66,68c-2.1,1.99-4.7,2.99-7.78,2.99s-5.67-.99-7.78-2.99c-2.11-1.99-3.16-4.47-3.16-7.43s1.05-5.44,3.16-7.43c2.11-1.99,4.7-2.99,7.78-2.99s5.68,1,7.78,2.99c2.1,1.99,3.16,4.46,3.16,7.43s-1.05,5.44-3.16,7.43ZM360.08,60.59c0-1.8-.6-3.33-1.79-4.6-1.19-1.27-2.65-1.9-4.39-1.9s-3.2.63-4.4,1.9c-1.19,1.27-1.79,2.8-1.79,4.6s.6,3.33,1.79,4.59c1.19,1.26,2.66,1.89,4.4,1.89s3.2-.63,4.39-1.89c1.19-1.26,1.79-2.79,1.79-4.59ZM331.02,54.11c-.78,0-1.39.18-1.83.53-.45.36-.67.83-.67,1.41s.27,1.05.82,1.4c.55.35,1.81.76,3.79,1.23,1.98.47,3.51,1.18,4.61,2.12,1.09.94,1.64,2.32,1.64,4.13s-.7,3.28-2.1,4.4c-1.4,1.12-3.24,1.69-5.53,1.69-3.3,0-6.27-1.19-8.91-3.55l2.77-3.29c2.25,1.91,4.32,2.86,6.23,2.86.86,0,1.52-.18,2.01-.53.49-.35.73-.84.73-1.44s-.26-1.09-.77-1.44c-.52-.36-1.54-.72-3.07-1.09-2.43-.55-4.2-1.28-5.32-2.18-1.12-.9-1.69-2.3-1.69-4.21s.71-3.39,2.13-4.43c1.42-1.04,3.19-1.56,5.32-1.56,1.39,0,2.78.23,4.17.69,1.39.46,2.6,1.12,3.64,1.96l-2.35,3.29c-1.81-1.32-3.68-1.99-5.6-1.99ZM299.11,66.8c2.13,0,3.76-.52,4.9-1.56,1.14-1.04,1.71-2.55,1.71-4.53s-.57-3.5-1.71-4.57c-1.14-1.06-2.9-1.6-5.26-1.6h-2.59v12.26h2.95ZM298.88,50.62c3.71,0,6.57.88,8.55,2.64,1.99,1.76,2.98,4.21,2.98,7.34s-.97,5.62-2.91,7.45c-1.94,1.83-4.9,2.74-8.87,2.74h-7.12v-20.17h7.36ZM286.24,50.62v4.01h-10.37v4.15h9.33v3.84h-9.33v4.18h10.7v3.98h-15.35v-20.17h15.02ZM256.79,60.46c1.59,0,2.67-.25,3.25-.75.58-.5.86-1.3.86-2.38s-.3-1.83-.89-2.24c-.6-.4-1.64-.61-3.13-.61h-3.49v5.97h3.4ZM265.64,57.31c0,3.23-1.32,5.32-3.96,6.26l5.27,7.22h-5.72l-4.62-6.44h-3.22v6.44h-4.65v-20.17h7.9c3.24,0,5.55.53,6.93,1.59,1.38,1.06,2.07,2.76,2.07,5.11ZM243.46,50.62v4.01h-10.37v4.15h9.33v3.84h-9.33v4.18h10.7v3.98h-15.35v-20.17h15.02ZM223.16,50.62v4.01h-10.37v4.15h9.33v3.84h-9.33v4.18h10.7v3.98h-15.35v-20.17h15.02ZM197.56,50.62h4.65v20.17h-4.65l-9.93-12.64v12.64h-4.65v-20.17h4.35l10.22,12.98v-12.98ZM172.4,50.62h4.65v20.17h-4.65v-20.17ZM162.77,60.51h4.68v7.16c-2.07,2.23-4.93,3.35-8.59,3.35-3.06,0-5.63-.98-7.7-2.95-2.08-1.96-3.11-4.44-3.11-7.43s1.06-5.49,3.17-7.49c2.12-2,4.67-3,7.66-3s5.59.95,7.79,2.86l-2.41,3.37c-.93-.79-1.79-1.33-2.58-1.63-.79-.3-1.63-.45-2.55-.45-1.77,0-3.26.58-4.47,1.74-1.21,1.17-1.82,2.7-1.82,4.6s.58,3.43,1.74,4.57c1.16,1.14,2.55,1.72,4.16,1.72s2.95-.3,4.02-.9v-5.54ZM138.65,50.62h4.65v20.17h-4.65l-9.93-12.64v12.64h-4.65v-20.17h4.35l10.22,12.98v-12.98ZM118.8,50.62v4.01h-10.37v4.15h9.33v3.84h-9.33v4.18h10.7v3.98h-15.35v-20.17h15.02Z" style="fill: #fff;"/>
</svg>